<svg width="120" height="120" viewBox="0 0 120 120" fill="none" xmlns="http://www.w3.org/2000/svg">
<rect width="120" height="120" fill="#1E1E1E"/>
<rect x="0.5" y="0.5" width="119" height="119" fill="black"/>
<path d="M45.125 108.375C51.5833 104.167 56.4167 100.333 59.625 96.875C62.8333 93.4167 65.125 89.2083 66.5 84.25C67.9167 79.25 68.6458 72.4792 68.6875 63.9375V17.375L79.3125 15L79.9375 10.25H45.875L45.25 15L56.5625 17.625V75.6875C56.5625 80.5208 55.3542 85.0417 52.9375 89.25C50.5625 93.5 46.8333 98.0208 41.75 102.812L45.125 108.375Z" fill="#6C63FF"/>
<path d="M64.2717 107.126C63.553 107.126 62.8997 106.963 62.3117 106.636C61.733 106.309 61.2757 105.847 60.9397 105.25C60.613 104.643 60.4497 103.943 60.4497 103.15C60.4497 102.366 60.6177 101.675 60.9537 101.078C61.299 100.471 61.7657 100.009 62.3537 99.692C62.9417 99.3653 63.5997 99.202 64.3277 99.202C65.0557 99.202 65.7137 99.3653 66.3017 99.692C66.8897 100.009 67.3517 100.467 67.6877 101.064C68.033 101.661 68.2057 102.357 68.2057 103.15C68.2057 103.943 68.0283 104.643 67.6737 105.25C67.3283 105.847 66.857 106.309 66.2597 106.636C65.6623 106.963 64.9997 107.126 64.2717 107.126ZM64.2717 106.006C64.729 106.006 65.1583 105.899 65.5597 105.684C65.961 105.469 66.283 105.147 66.5257 104.718C66.7777 104.289 66.9037 103.766 66.9037 103.15C66.9037 102.534 66.7823 102.011 66.5397 101.582C66.297 101.153 65.9797 100.835 65.5877 100.63C65.1957 100.415 64.771 100.308 64.3137 100.308C63.847 100.308 63.4177 100.415 63.0257 100.63C62.643 100.835 62.335 101.153 62.1017 101.582C61.8683 102.011 61.7517 102.534 61.7517 103.15C61.7517 103.775 61.8637 104.303 62.0877 104.732C62.321 105.161 62.629 105.483 63.0117 105.698C63.3943 105.903 63.8143 106.006 64.2717 106.006ZM71.1547 100.756C71.4161 100.299 71.7987 99.9253 72.3027 99.636C72.8067 99.3467 73.3807 99.202 74.0247 99.202C74.7154 99.202 75.3361 99.3653 75.8867 99.692C76.4374 100.019 76.8714 100.481 77.1887 101.078C77.5061 101.666 77.6647 102.352 77.6647 103.136C77.6647 103.911 77.5061 104.601 77.1887 105.208C76.8714 105.815 76.4327 106.286 75.8727 106.622C75.3221 106.958 74.7061 107.126 74.0247 107.126C73.3621 107.126 72.7787 106.981 72.2747 106.692C71.7801 106.403 71.4067 106.034 71.1547 105.586V107H69.8807V96.64H71.1547V100.756ZM76.3627 103.136C76.3627 102.557 76.2461 102.053 76.0127 101.624C75.7794 101.195 75.4621 100.868 75.0607 100.644C74.6687 100.42 74.2347 100.308 73.7587 100.308C73.2921 100.308 72.8581 100.425 72.4567 100.658C72.0647 100.882 71.7474 101.213 71.5047 101.652C71.2714 102.081 71.1547 102.581 71.1547 103.15C71.1547 103.729 71.2714 104.237 71.5047 104.676C71.7474 105.105 72.0647 105.437 72.4567 105.67C72.8581 105.894 73.2921 106.006 73.7587 106.006C74.2347 106.006 74.6687 105.894 75.0607 105.67C75.4621 105.437 75.7794 105.105 76.0127 104.676C76.2461 104.237 76.3627 103.724 76.3627 103.136ZM85.9497 99.328L81.3297 110.612H80.0137L81.5257 106.916L78.4317 99.328H79.8457L82.2537 105.544L84.6337 99.328H85.9497Z" fill="#65CD92"/>
<rect x="0.5" y="0.5" width="119" height="119" stroke="black"/>
</svg>
