<svg xmlns="http://www.w3.org/2000/svg" version="1.1" xmlns:xlink="http://www.w3.org/1999/xlink" xmlns:svgjs="http://svgjs.com/svgjs" width="512" height="512" x="0" y="0" viewBox="0 0 48 48" style="enable-background:new 0 0 512 512" xml:space="preserve" class=""><g><g xmlns="http://www.w3.org/2000/svg"><path d="m10.76 23.06c-.06-.18-.22-.31-.4-.34l-2.11-.31-.94-1.91c-.17-.34-.73-.34-.9 0l-.94 1.91-2.11.31c-.19.03-.34.16-.4.34s-.01.38.13.51l1.53 1.49-.36 2.1c-.03.19.04.38.2.49.15.11.36.13.53.04l1.89-.99 1.89.99c.07.04.15.06.23.06.1 0 .21-.03.29-.1.15-.11.23-.3.2-.49l-.36-2.1 1.53-1.49c.11-.13.16-.32.1-.51zm-2.54 1.47c-.12.11-.17.28-.14.44l.23 1.36-1.22-.64c-.07-.04-.15-.06-.23-.06s-.16.02-.23.06l-1.23.65.23-1.36c.03-.16-.03-.33-.14-.44l-.99-.97 1.37-.2c.16-.02.3-.13.38-.27l.61-1.24.61 1.24c.07.15.21.25.38.27l1.37.2z" fill="#000000" data-original="#000000"></path><path d="m19.33 23.06c-.06-.18-.22-.31-.4-.34l-2.11-.31-.94-1.91c-.17-.34-.73-.34-.9 0l-.94 1.91-2.11.31c-.19.03-.34.16-.4.34s-.01.38.13.51l1.53 1.49-.36 2.1c-.03.19.04.38.2.49.09.06.19.1.29.1.08 0 .16-.02.23-.06l1.89-.99 1.89.99c.17.09.37.07.53-.04.15-.11.23-.3.2-.49l-.36-2.1 1.53-1.49c.11-.13.16-.32.1-.51zm-2.54 1.47c-.12.11-.17.28-.14.44l.23 1.36-1.22-.64c-.14-.08-.32-.08-.46 0l-1.22.64.23-1.36c.03-.16-.03-.33-.14-.44l-.99-.96 1.37-.2c.16-.02.3-.13.38-.27l.61-1.24.61 1.24c.07.15.21.25.38.27l1.37.2z" fill="#000000" data-original="#000000"></path><path d="m27.9 23.06c-.06-.18-.22-.31-.4-.34l-2.11-.31-.94-1.91c-.17-.34-.73-.34-.9 0l-.94 1.91-2.11.31c-.19.03-.34.16-.4.34s-.01.38.13.51l1.53 1.49-.36 2.1c-.03.19.04.38.2.49.09.06.19.1.29.1.08 0 .16-.02.23-.06l1.88-.99 1.89.99c.17.09.37.07.53-.04.15-.11.23-.3.2-.49l-.36-2.1 1.53-1.49c.12-.13.17-.32.11-.51zm-2.53 1.47c-.12.11-.17.28-.14.44l.23 1.36-1.22-.64c-.07-.04-.15-.06-.23-.06s-.16.02-.23.06l-1.22.64.23-1.36c.03-.16-.03-.33-.14-.44l-.99-.96 1.37-.2c.16-.02.3-.13.38-.27l.59-1.24.61 1.24c.07.15.21.25.38.27l1.37.2z" fill="#000000" data-original="#000000"></path><path d="m36.07 22.72-2.11-.31-.94-1.91c-.17-.34-.73-.34-.9 0l-.94 1.91-2.11.31c-.19.03-.34.16-.4.34s-.01.38.13.51l1.53 1.49-.36 2.1c-.03.19.04.38.2.49.15.11.36.13.53.04l1.89-.99 1.89.99c.07.04.15.06.23.06.1 0 .21-.03.29-.1.15-.11.23-.3.2-.49l-.36-2.1 1.53-1.49c.14-.13.19-.33.13-.51-.08-.18-.24-.31-.43-.34zm-2.13 1.81c-.12.11-.17.28-.14.44l.23 1.36-1.22-.64c-.07-.04-.15-.06-.23-.06s-.16.02-.23.06l-1.22.64.23-1.36c.03-.16-.03-.33-.14-.44l-.99-.96 1.37-.2c.16-.02.3-.13.38-.27l.61-1.24.61 1.24c.07.15.21.25.38.27l1.37.2z" fill="#000000" data-original="#000000"></path><path d="m44.64 22.72-2.11-.31-.94-1.91c-.17-.34-.73-.34-.9 0l-.94 1.91-2.11.31c-.19.03-.34.16-.4.34s-.01.38.13.51l1.53 1.49-.36 2.1c-.03.19.04.38.2.49.15.11.36.13.53.04l1.89-.99 1.89.99c.07.04.15.06.23.06.1 0 .21-.03.29-.1.15-.11.23-.3.2-.49l-.36-2.1 1.53-1.49c.14-.13.19-.33.13-.51-.08-.18-.24-.31-.43-.34zm-2.13 1.81c-.12.11-.17.28-.14.44l.23 1.36-1.22-.64c-.07-.04-.15-.06-.23-.06s-.16.02-.23.06l-1.22.64.23-1.36c.03-.16-.03-.33-.14-.44l-.99-.96 1.37-.2c.16-.02.3-.13.38-.27l.61-1.24.61 1.24c.07.15.21.25.38.27l1.37.2z" fill="#000000" data-original="#000000"></path></g></g></svg>