<svg xmlns="http://www.w3.org/2000/svg" version="1.1" xmlns:xlink="http://www.w3.org/1999/xlink" xmlns:svgjs="http://svgjs.com/svgjs" width="512" height="512" x="0" y="0" viewBox="0 0 512.003 512.003" style="enable-background:new 0 0 512 512" xml:space="preserve" class=""><g>
<g xmlns="http://www.w3.org/2000/svg">
	<g>
		<path d="M94.526,244.616c-0.769-2.36-2.809-4.08-5.267-4.439l-24.899-3.611l-11.126-22.481c-2.203-4.445-9.484-4.445-11.687,0    l-11.126,22.481l-24.84,3.611c-2.451,0.365-4.491,2.079-5.26,4.439c-0.769,2.36-0.13,4.947,1.649,6.681l18.016,17.553    l-4.25,24.782c-0.417,2.451,0.587,4.921,2.594,6.381c2.014,1.447,4.68,1.643,6.87,0.489l22.188-11.7l22.253,11.7    c0.952,0.502,1.995,0.75,3.031,0.75c1.349,0,2.698-0.417,3.846-1.245c2.008-1.46,3.011-3.93,2.594-6.375l-4.243-24.782    l18.009-17.553C94.657,249.563,95.295,246.976,94.526,244.616z" fill="#000000" data-original="#000000"></path>
	</g>
</g>
<g xmlns="http://www.w3.org/2000/svg">
	<g>
		<path d="M198.815,244.616c-0.769-2.36-2.809-4.08-5.267-4.439l-24.899-3.611l-11.126-22.481c-2.203-4.445-9.484-4.445-11.687,0    l-11.126,22.481l-24.84,3.611c-2.451,0.365-4.491,2.079-5.26,4.439c-0.769,2.36-0.13,4.947,1.649,6.681l18.016,17.553    l-4.25,24.782c-0.417,2.451,0.587,4.921,2.594,6.381c2.014,1.447,4.673,1.643,6.87,0.489l22.188-11.7l22.253,11.7    c0.952,0.502,1.995,0.75,3.031,0.75c1.349,0,2.698-0.417,3.846-1.245c2.008-1.46,3.011-3.93,2.594-6.375l-4.243-24.782    l18.009-17.553C198.946,249.563,199.584,246.976,198.815,244.616z M167.587,261.908c-1.538,1.499-2.236,3.65-1.877,5.768    l2.594,15.148l-13.603-7.157c-0.945-0.502-1.988-0.75-3.031-0.75s-2.086,0.254-3.031,0.756l-13.531,7.131l2.594-15.128    c0.358-2.112-0.339-4.269-1.877-5.768l-11.009-10.729l15.154-2.203c2.118-0.306,3.95-1.636,4.902-3.559l6.798-13.747l6.798,13.747    c0.952,1.923,2.783,3.253,4.908,3.559l15.213,2.21L167.587,261.908z" fill="#000000" data-original="#000000"></path>
	</g>
</g>
<g xmlns="http://www.w3.org/2000/svg">
	<g>
		<path d="M303.104,244.616c-0.769-2.36-2.809-4.08-5.267-4.439l-24.899-3.611l-11.126-22.481c-2.203-4.445-9.484-4.445-11.687,0    l-11.126,22.481l-24.84,3.611c-2.451,0.365-4.491,2.079-5.26,4.439c-0.769,2.36-0.13,4.947,1.649,6.681l18.016,17.553    l-4.25,24.782c-0.417,2.451,0.587,4.921,2.594,6.381c2.014,1.447,4.673,1.643,6.87,0.489l22.187-11.7l22.253,11.7    c0.952,0.502,1.995,0.75,3.031,0.75c1.349,0,2.698-0.417,3.846-1.245c2.008-1.46,3.011-3.93,2.594-6.375l-4.243-24.782    l18.009-17.553C303.235,249.563,303.873,246.976,303.104,244.616z M271.876,261.908c-1.538,1.499-2.236,3.65-1.877,5.768    l2.594,15.148l-13.603-7.157c-0.945-0.502-1.988-0.75-3.031-0.75c-1.043,0-2.086,0.254-3.031,0.756l-13.531,7.131l2.594-15.128    c0.358-2.112-0.339-4.269-1.877-5.768l-11.009-10.729l15.154-2.203c2.118-0.306,3.95-1.636,4.902-3.559l6.798-13.747l6.798,13.747    c0.952,1.923,2.783,3.253,4.908,3.559l15.213,2.21L271.876,261.908z" fill="#000000" data-original="#000000"></path>
	</g>
</g>
<g xmlns="http://www.w3.org/2000/svg">
	<g>
		<path d="M407.393,244.616c-0.769-2.36-2.809-4.08-5.267-4.439l-24.899-3.611l-11.126-22.481c-2.203-4.445-9.484-4.445-11.687,0    l-11.126,22.481l-24.84,3.611c-2.451,0.365-4.491,2.079-5.26,4.439c-0.769,2.36-0.13,4.947,1.649,6.681l18.016,17.553    l-4.25,24.782c-0.417,2.451,0.587,4.921,2.594,6.381c2.014,1.447,4.68,1.643,6.87,0.489l22.187-11.7l22.253,11.7    c0.952,0.502,1.995,0.75,3.031,0.75c1.349,0,2.698-0.417,3.846-1.245c2.008-1.46,3.011-3.93,2.594-6.375l-4.243-24.782    l18.009-17.553C407.523,249.563,408.162,246.976,407.393,244.616z M376.165,261.908c-1.538,1.499-2.236,3.65-1.877,5.768    l2.594,15.148l-13.603-7.157c-0.945-0.502-1.988-0.75-3.031-0.75c-1.043,0-2.086,0.254-3.031,0.756l-13.531,7.131l2.594-15.128    c0.358-2.112-0.339-4.269-1.877-5.768l-11.009-10.729l15.155-2.203c2.118-0.306,3.95-1.636,4.902-3.559l6.798-13.747l6.798,13.747    c0.952,1.923,2.783,3.253,4.908,3.559l15.213,2.21L376.165,261.908z" fill="#000000" data-original="#000000"></path>
	</g>
</g>
<g xmlns="http://www.w3.org/2000/svg">
	<g>
		<path d="M511.682,244.616c-0.769-2.36-2.809-4.08-5.267-4.439l-24.899-3.611l-11.126-22.481c-2.203-4.445-9.484-4.445-11.687,0    l-11.126,22.481l-24.84,3.611c-2.451,0.365-4.491,2.079-5.26,4.439c-0.769,2.36-0.13,4.947,1.649,6.681l18.016,17.553    l-4.25,24.782c-0.417,2.451,0.587,4.921,2.594,6.381c2.014,1.447,4.68,1.643,6.87,0.489l22.188-11.7l22.253,11.7    c0.952,0.502,1.995,0.75,3.031,0.75c1.349,0,2.698-0.417,3.846-1.245c2.008-1.46,3.011-3.93,2.594-6.375l-4.243-24.782    l18.009-17.553C511.812,249.563,512.451,246.976,511.682,244.616z M480.454,261.908c-1.538,1.499-2.236,3.65-1.877,5.768    l2.594,15.148l-13.603-7.157c-0.945-0.502-1.988-0.75-3.031-0.75c-1.043,0-2.086,0.254-3.031,0.756l-13.531,7.131l2.594-15.128    c0.359-2.112-0.339-4.269-1.877-5.768l-11.009-10.729l15.154-2.203c2.118-0.306,3.95-1.636,4.902-3.559l6.798-13.747l6.798,13.747    c0.952,1.923,2.783,3.253,4.908,3.559l15.213,2.21L480.454,261.908z" fill="#000000" data-original="#000000"></path>
	</g>
</g>
<g xmlns="http://www.w3.org/2000/svg">
</g>
<g xmlns="http://www.w3.org/2000/svg">
</g>
<g xmlns="http://www.w3.org/2000/svg">
</g>
<g xmlns="http://www.w3.org/2000/svg">
</g>
<g xmlns="http://www.w3.org/2000/svg">
</g>
<g xmlns="http://www.w3.org/2000/svg">
</g>
<g xmlns="http://www.w3.org/2000/svg">
</g>
<g xmlns="http://www.w3.org/2000/svg">
</g>
<g xmlns="http://www.w3.org/2000/svg">
</g>
<g xmlns="http://www.w3.org/2000/svg">
</g>
<g xmlns="http://www.w3.org/2000/svg">
</g>
<g xmlns="http://www.w3.org/2000/svg">
</g>
<g xmlns="http://www.w3.org/2000/svg">
</g>
<g xmlns="http://www.w3.org/2000/svg">
</g>
<g xmlns="http://www.w3.org/2000/svg">
</g>
</g></svg>