<svg xmlns="http://www.w3.org/2000/svg" version="1.1" xmlns:xlink="http://www.w3.org/1999/xlink" xmlns:svgjs="http://svgjs.com/svgjs" width="512" height="512" x="0" y="0" viewBox="0 0 512 512" style="enable-background:new 0 0 512 512" xml:space="preserve" class=""><g>
<g xmlns="http://www.w3.org/2000/svg">
	<g>
		<path d="M94.525,244.686c-0.769-2.366-2.809-4.087-5.267-4.445l-24.892-3.611L53.233,214.09c-2.197-4.452-9.49-4.452-11.687,0    l-11.133,22.539L5.58,240.24c-2.457,0.365-4.497,2.086-5.26,4.445c-0.769,2.359-0.124,4.954,1.656,6.681l18.003,17.488    l-4.243,24.775c-0.417,2.451,0.587,4.921,2.594,6.381c2.014,1.454,4.673,1.643,6.87,0.489l22.187-11.7l22.253,11.7    c0.952,0.502,1.995,0.75,3.031,0.75c1.349,0,2.698-0.417,3.846-1.245c2.008-1.46,3.011-3.93,2.594-6.375l-4.243-24.775    l18.003-17.488C94.649,249.639,95.294,247.045,94.525,244.686z" fill="#000000" data-original="#000000"></path>
	</g>
</g>
<g xmlns="http://www.w3.org/2000/svg">
	<g>
		<path d="M198.814,244.686c-0.769-2.366-2.809-4.087-5.267-4.445l-24.892-3.611l-11.133-22.539c-2.197-4.452-9.49-4.452-11.687,0    l-11.133,22.539l-24.834,3.611c-2.457,0.365-4.497,2.086-5.26,4.445c-0.769,2.359-0.124,4.954,1.656,6.681l18.003,17.488    l-4.243,24.775c-0.417,2.451,0.587,4.921,2.594,6.381c2.014,1.454,4.673,1.643,6.87,0.489l22.187-11.7l22.253,11.7    c0.952,0.502,1.995,0.75,3.031,0.75c1.349,0,2.698-0.417,3.846-1.245c2.008-1.46,3.011-3.93,2.594-6.375l-4.243-24.775    l18.003-17.488C198.938,249.639,199.583,247.045,198.814,244.686z" fill="#000000" data-original="#000000"></path>
	</g>
</g>
<g xmlns="http://www.w3.org/2000/svg">
	<g>
		<path d="M303.103,244.685c-0.769-2.366-2.809-4.087-5.267-4.445l-24.892-3.611l-11.133-22.539c-2.197-4.452-9.49-4.452-11.687,0    l-11.133,22.539l-24.834,3.611c-2.457,0.365-4.497,2.086-5.26,4.445c-0.769,2.36-0.124,4.954,1.656,6.681l18.003,17.488    l-4.243,24.775c-0.417,2.451,0.587,4.921,2.594,6.381c2.014,1.453,4.68,1.643,6.87,0.489l22.187-11.7l22.253,11.7    c0.952,0.502,1.995,0.75,3.031,0.75c1.349,0,2.698-0.417,3.846-1.245c2.008-1.46,3.011-3.93,2.594-6.375l-4.243-24.775    l18.003-17.488C303.227,249.639,303.872,247.045,303.103,244.685z M271.881,261.9c-1.538,1.493-2.249,3.657-1.884,5.775    l2.594,15.148l-13.603-7.157c-0.945-0.502-1.988-0.75-3.031-0.75c-1.043,0-2.086,0.254-3.031,0.75l-13.531,7.131l2.594-15.128    c0.365-2.118-0.346-4.282-1.884-5.775l-10.976-10.657l15.128-2.197c2.118-0.306,3.95-1.643,4.902-3.565l6.798-13.773l6.798,13.773    c0.952,1.923,2.783,3.259,4.908,3.565l15.187,2.203L271.881,261.9z" fill="#000000" data-original="#000000"></path>
	</g>
</g>
<g xmlns="http://www.w3.org/2000/svg">
	<g>
		<path d="M407.392,244.685c-0.769-2.366-2.809-4.087-5.267-4.445l-24.892-3.611L366.1,214.09c-2.197-4.452-9.49-4.452-11.687,0    l-11.133,22.539l-24.834,3.611c-2.457,0.365-4.497,2.086-5.26,4.445c-0.769,2.36-0.124,4.954,1.656,6.681l18.003,17.488    l-4.243,24.775c-0.417,2.451,0.587,4.921,2.594,6.381c2.014,1.453,4.68,1.643,6.87,0.489l22.187-11.7l22.253,11.7    c0.952,0.502,1.995,0.75,3.031,0.75c1.349,0,2.698-0.417,3.846-1.245c2.008-1.46,3.011-3.93,2.594-6.375l-4.243-24.775    l18.003-17.488C407.516,249.639,408.161,247.045,407.392,244.685z M376.17,261.9c-1.538,1.493-2.249,3.657-1.884,5.775    l2.594,15.148l-13.603-7.157c-0.945-0.502-1.988-0.75-3.031-0.75c-1.043,0-2.086,0.254-3.031,0.75l-13.531,7.131l2.594-15.128    c0.365-2.118-0.345-4.282-1.884-5.775l-10.976-10.657l15.128-2.197c2.118-0.306,3.95-1.643,4.902-3.565l6.798-13.773l6.798,13.773    c0.952,1.923,2.783,3.259,4.908,3.565l15.187,2.203L376.17,261.9z" fill="#000000" data-original="#000000"></path>
	</g>
</g>
<g xmlns="http://www.w3.org/2000/svg">
	<g>
		<path d="M511.681,244.685c-0.769-2.366-2.809-4.087-5.267-4.445l-24.892-3.611l-11.133-22.539c-2.197-4.452-9.49-4.452-11.687,0    l-11.133,22.539l-24.834,3.611c-2.457,0.365-4.497,2.086-5.26,4.445c-0.769,2.36-0.124,4.954,1.656,6.681l18.003,17.488    l-4.243,24.775c-0.417,2.451,0.587,4.921,2.594,6.381c2.014,1.453,4.68,1.643,6.87,0.489l22.188-11.7l22.253,11.7    c0.952,0.502,1.995,0.75,3.031,0.75c1.349,0,2.698-0.417,3.846-1.245c2.008-1.46,3.011-3.93,2.594-6.375l-4.243-24.775    l18.003-17.488C511.805,249.639,512.45,247.045,511.681,244.685z M480.459,261.9c-1.538,1.493-2.249,3.657-1.884,5.775    l2.594,15.148l-13.603-7.157c-0.945-0.502-1.988-0.75-3.031-0.75c-1.043,0-2.086,0.254-3.031,0.75l-13.531,7.131l2.594-15.128    c0.365-2.118-0.345-4.282-1.884-5.775l-10.976-10.657l15.128-2.197c2.118-0.306,3.95-1.643,4.902-3.565l6.798-13.773l6.798,13.773    c0.952,1.923,2.783,3.259,4.908,3.565l15.187,2.203L480.459,261.9z" fill="#000000" data-original="#000000"></path>
	</g>
</g>
<g xmlns="http://www.w3.org/2000/svg">
</g>
<g xmlns="http://www.w3.org/2000/svg">
</g>
<g xmlns="http://www.w3.org/2000/svg">
</g>
<g xmlns="http://www.w3.org/2000/svg">
</g>
<g xmlns="http://www.w3.org/2000/svg">
</g>
<g xmlns="http://www.w3.org/2000/svg">
</g>
<g xmlns="http://www.w3.org/2000/svg">
</g>
<g xmlns="http://www.w3.org/2000/svg">
</g>
<g xmlns="http://www.w3.org/2000/svg">
</g>
<g xmlns="http://www.w3.org/2000/svg">
</g>
<g xmlns="http://www.w3.org/2000/svg">
</g>
<g xmlns="http://www.w3.org/2000/svg">
</g>
<g xmlns="http://www.w3.org/2000/svg">
</g>
<g xmlns="http://www.w3.org/2000/svg">
</g>
<g xmlns="http://www.w3.org/2000/svg">
</g>
</g></svg>