<svg xmlns="http://www.w3.org/2000/svg" version="1.1" xmlns:xlink="http://www.w3.org/1999/xlink" xmlns:svgjs="http://svgjs.com/svgjs" width="512" height="512" x="0" y="0" viewBox="0 0 512 512" style="enable-background:new 0 0 512 512" xml:space="preserve" class=""><g>
<g xmlns="http://www.w3.org/2000/svg">
	<g>
		<path d="M94.525,244.688c-0.769-2.366-2.809-4.08-5.267-4.439l-24.892-3.618l-11.133-22.539c-2.197-4.458-9.49-4.458-11.687,0    l-11.133,22.539L5.58,240.249c-2.457,0.358-4.497,2.079-5.26,4.439c-0.769,2.366-0.124,4.954,1.656,6.681l18.003,17.501    l-4.243,24.769c-0.417,2.444,0.587,4.921,2.594,6.381c2.014,1.454,4.673,1.643,6.87,0.489l22.187-11.7l22.253,11.7    c0.952,0.502,1.995,0.75,3.031,0.75c1.349,0,2.698-0.417,3.846-1.238c2.008-1.467,3.011-3.937,2.594-6.381l-4.243-24.769    l18.003-17.501C94.649,249.648,95.294,247.048,94.525,244.688z" fill="#000" data-original="#000000" class=""></path>
	</g>
</g>
<g xmlns="http://www.w3.org/2000/svg">
	<g>
		<path d="M198.814,244.688c-0.769-2.366-2.809-4.08-5.267-4.439l-24.892-3.618l-11.133-22.539c-2.197-4.458-9.49-4.458-11.687,0    l-11.133,22.539l-24.834,3.618c-2.457,0.358-4.497,2.079-5.26,4.439c-0.769,2.366-0.124,4.954,1.656,6.681l18.003,17.501    l-4.243,24.769c-0.417,2.444,0.587,4.928,2.594,6.381c2.008,1.454,4.68,1.643,6.87,0.489l22.187-11.7l22.253,11.7    c0.952,0.502,1.995,0.75,3.031,0.75c1.349,0,2.698-0.417,3.846-1.238c2.008-1.467,3.011-3.937,2.594-6.381l-4.243-24.769    l18.003-17.501C198.938,249.648,199.583,247.048,198.814,244.688z" fill="#000" data-original="#000000" class=""></path>
	</g>
</g>
<g xmlns="http://www.w3.org/2000/svg">
	<g>
		<path d="M303.103,244.688c-0.769-2.366-2.809-4.08-5.267-4.439l-24.893-3.618l-11.133-22.539c-2.197-4.458-9.49-4.458-11.687,0    l-11.133,22.539l-24.834,3.618c-2.457,0.358-4.497,2.079-5.26,4.439c-0.769,2.366-0.124,4.954,1.656,6.681l18.003,17.501    l-4.243,24.769c-0.417,2.444,0.587,4.928,2.594,6.381c2.008,1.454,4.68,1.643,6.87,0.489l22.188-11.7l22.253,11.7    c0.952,0.502,1.995,0.75,3.031,0.75c1.349,0,2.698-0.417,3.846-1.238c2.008-1.467,3.011-3.937,2.594-6.381l-4.243-24.769    l18.003-17.501C303.227,249.648,303.872,247.048,303.103,244.688z" fill="#000" data-original="#000000" class=""></path>
	</g>
</g>
<g xmlns="http://www.w3.org/2000/svg">
	<g>
		<path d="M407.392,244.681c-0.769-2.366-2.809-4.08-5.267-4.439l-24.892-3.618L366.1,214.086c-2.197-4.458-9.49-4.458-11.687,0    l-11.133,22.539l-24.834,3.618c-2.457,0.358-4.497,2.079-5.26,4.439c-0.769,2.366-0.124,4.954,1.656,6.681l18.003,17.501    l-4.243,24.769c-0.417,2.444,0.587,4.921,2.594,6.381c2.014,1.454,4.68,1.643,6.87,0.489l22.188-11.7l22.253,11.7    c0.952,0.502,1.995,0.75,3.031,0.75c1.349,0,2.698-0.417,3.846-1.238c2.008-1.467,3.011-3.937,2.594-6.381l-4.243-24.769    l18.003-17.501C407.516,249.648,408.161,247.041,407.392,244.681z" fill="#000" data-original="#000000" class=""></path>
	</g>
</g>
<g xmlns="http://www.w3.org/2000/svg">
	<g>
		<path d="M511.681,244.688c-0.769-2.366-2.809-4.08-5.267-4.439l-24.892-3.617l-11.133-22.539c-2.197-4.458-9.49-4.458-11.687,0    l-11.133,22.539l-24.834,3.617c-2.457,0.359-4.497,2.079-5.26,4.439c-0.769,2.366-0.124,4.954,1.656,6.681l18.003,17.501    l-4.243,24.769c-0.417,2.444,0.587,4.921,2.594,6.381c2.014,1.453,4.68,1.643,6.87,0.489l22.188-11.7l22.253,11.7    c0.952,0.502,1.995,0.75,3.031,0.75c1.349,0,2.698-0.417,3.846-1.238c2.008-1.467,3.011-3.937,2.594-6.381l-4.243-24.769    l18.003-17.501C511.805,249.648,512.45,247.047,511.681,244.688z M480.459,261.915c-1.538,1.499-2.249,3.657-1.884,5.775    l2.594,15.135l-13.603-7.15c-0.945-0.502-1.988-0.75-3.031-0.75c-1.043,0-2.086,0.248-3.031,0.75l-13.531,7.131l2.594-15.115    c0.365-2.118-0.345-4.282-1.884-5.775l-10.976-10.67l15.128-2.203c2.118-0.306,3.95-1.643,4.902-3.565l6.798-13.773l6.798,13.773    c0.952,1.929,2.783,3.259,4.908,3.565l15.187,2.21L480.459,261.915z" fill="#000" data-original="#000000" class=""></path>
	</g>
</g>
<g xmlns="http://www.w3.org/2000/svg">
</g>
<g xmlns="http://www.w3.org/2000/svg">
</g>
<g xmlns="http://www.w3.org/2000/svg">
</g>
<g xmlns="http://www.w3.org/2000/svg">
</g>
<g xmlns="http://www.w3.org/2000/svg">
</g>
<g xmlns="http://www.w3.org/2000/svg">
</g>
<g xmlns="http://www.w3.org/2000/svg">
</g>
<g xmlns="http://www.w3.org/2000/svg">
</g>
<g xmlns="http://www.w3.org/2000/svg">
</g>
<g xmlns="http://www.w3.org/2000/svg">
</g>
<g xmlns="http://www.w3.org/2000/svg">
</g>
<g xmlns="http://www.w3.org/2000/svg">
</g>
<g xmlns="http://www.w3.org/2000/svg">
</g>
<g xmlns="http://www.w3.org/2000/svg">
</g>
<g xmlns="http://www.w3.org/2000/svg">
</g>
</g></svg>