<svg xmlns="http://www.w3.org/2000/svg" version="1.1" xmlns:xlink="http://www.w3.org/1999/xlink" xmlns:svgjs="http://svgjs.com/svgjs" width="512" height="512" x="0" y="0" viewBox="0 0 512 512" style="enable-background:new 0 0 512 512" xml:space="preserve" class=""><g><path xmlns="http://www.w3.org/2000/svg" d="m420 482h-328c-33.791 0-62-28.209-62-62v-44h12v44c0 27.248 22.753 50 50 50h328c27.253 0 50-22.747 50-50v-328c0-27.259-22.742-50-50-50h-52v-12h52c33.791 0 62 28.209 62 62v328c0 33.791-28.209 62-62 62zm-378-114h-12v-12h12zm0-20h-12v-256c0-33.791 28.209-62 62-62h268v12h-268c-27.253 0-50 22.746-50 50z" fill="#fff" data-original="#000000"></path><g xmlns="http://www.w3.org/2000/svg" id="path9-5"><path d="m267.2 397.376c-25.944 0-51.4-.533-59.846-1.262-2.514-.218-8.4-.727-8.4-6.5 0-5.044 3.954-7.9 7.442-10.417 3.692-2.665 6.111-4.611 6.111-7.274 0-5.6-.077-17.029-.132-24.344-2.876.242-6.507.442-10.63.442-29.7 0-38.634-21.142-41.569-28.09-4.037-9.595-9.076-14.28-15.4-18.365s-6.5-8.5-6.053-10.766c.327-1.66 1.753-5.643 7.905-6.8 16.677-3.143 25.717 8.608 32.979 18.048 3.993 5.189 7.762 10.089 11.763 11.352 7.9 2.489 17.516 1.7 23.085-.629a34.327 34.327 0 0 1 5.466-12.009c-30.873-5.062-51.546-17.725-63.007-38.515l.021-.011a20.593 20.593 0 0 1 -1.008-1.92c-.484-1.011-1.116-2.368-1.744-3.752-2.041-4.5-2.674-6.19-2.869-7.263-3.486-10.6-5.186-22.707-5.2-36.983 0-24.266 7.655-35.064 16.8-46.752-6.652-27.519 3.593-46.343 4.047-47.158a6 6 0 0 1 4.021-2.95c1.847-.382 18.5-3.042 48.3 17.469 18.319-6 57.081-6.706 78.834-1.318 8.407-5.287 34.891-20.849 48.257-16.1a6 6 0 0 1 3.087 2.491c3.487 5.614 8.592 18.667 4.55 43.825.4.511.868 1.079 1.326 1.638 5.854 7.154 18.039 22.041 18.092 52.185v.128c-.251 12.881-1.572 23.745-4.034 33.176a28.917 28.917 0 0 1 -1.532 5.908 42.948 42.948 0 0 1 -2.9 7.191 8.416 8.416 0 0 1 -.558.822c-11.9 25.063-35.6 33.737-61.229 37.663 6.258 8.731 7.614 20.344 7.614 37.484 0 15.294-.126 22.469-.21 27.217-.053 3-.084 4.811-.053 6.988.04 2.935 4.075 5.9 7.022 8.068 3.393 2.5 7.239 5.323 6.411 10.13-1 5.773-6.35 5.962-20.631 6.466-8.51.3-20.235.467-33.909.483zm-48.535-12.691c21.285.7 64.571.986 85.662.207-3.07-3.111-5.729-7.186-5.8-12.5-.035-2.363 0-4.355.053-7.368.083-4.706.208-11.818.208-27.006 0-24.608-3.235-31.022-12.349-36.753a6 6 0 0 1 2.582-11.047c37.557-3.852 55.755-13.183 64.907-33.277a5.947 5.947 0 0 1 .918-1.434 64.894 64.894 0 0 0 2.539-7.48 5.957 5.957 0 0 1 .206-1.4c2.337-8.645 3.591-18.794 3.834-31.025-.062-25.829-10.025-38-15.379-44.544a35.063 35.063 0 0 1 -3.614-4.916 6 6 0 0 1 -.658-3.965c3.573-19.961.88-30.681-1.352-35.647-6.951-.081-23.578 7.054-38 16.568a6.006 6.006 0 0 1 -4.988.751c-19.626-5.734-61.9-5.01-76.667 1.313a6 6 0 0 1 -5.853-.637c-20.195-14.454-33.359-16.979-38.795-17.32-2.242 5.786-6.062 19.636-.879 38.1a6 6 0 0 1 -1.057 5.326l-.589.752c-9.326 11.873-15.486 19.717-15.486 40.927.01 13.292 1.586 24.384 4.82 33.906a6.1 6.1 0 0 1 .229.9c.729 1.907 3.377 7.666 4.086 9.042.06.1.117.193.172.292 10.814 19.618 32.246 30.7 65.518 33.89a6 6 0 0 1 3.067 10.76c-4.253 3.228-9.462 9.407-10.143 16.194a6 6 0 0 1 -2.715 4.442c-8.463 5.463-23.673 6.8-35.378 3.113-7.6-2.4-12.717-9.049-17.664-15.479-3.622-4.708-6.663-8.493-9.9-10.912a50.082 50.082 0 0 1 11.035 16.812c4.334 10.259 11.352 20.753 30.512 20.753a103.562 103.562 0 0 0 15.565-1.092 6 6 0 0 1 7.013 5.864c0 .224.184 22.506.184 31.13-.003 5.675-2.763 9.763-5.841 12.76zm-52.925-130.148a6.04 6.04 0 0 1 1.369 1.42 5.739 5.739 0 0 0 -1.366-1.42zm-3.512-1.181a5.932 5.932 0 0 1 1.288.154 5.961 5.961 0 0 0 -1.285-.154z" fill="#fff" data-original="#000000"></path></g></g></svg>