<svg xmlns="http://www.w3.org/2000/svg" version="1.1" xmlns:xlink="http://www.w3.org/1999/xlink" xmlns:svgjs="http://svgjs.com/svgjs" width="512" height="512" x="0" y="0" viewBox="0 0 24 24" style="enable-background:new 0 0 512 512" xml:space="preserve" class=""><g transform="matrix(1,-2.4492935982947064e-16,2.4492935982947064e-16,1,-3.552713678800501e-15,3.552713678800501e-15)"><script id="youtube-hd-fjdmkanbdloodhegphphhklnjfngoffa">var ythdlog = () =&gt; {};;var ythderror = () =&gt; {};</script><path xmlns="http://www.w3.org/2000/svg" d="m4.75 24h14.5c2.619 0 4.75-2.131 4.75-4.75v-14.5c0-2.619-2.131-4.75-4.75-4.75h-14.5c-2.619 0-4.75 2.131-4.75 4.75v14.5c0 2.619 2.131 4.75 4.75 4.75zm-3.25-19.25c0-1.792 1.458-3.25 3.25-3.25h14.5c1.792 0 3.25 1.458 3.25 3.25v14.5c0 1.792-1.458 3.25-3.25 3.25h-14.5c-1.792 0-3.25-1.458-3.25-3.25z" fill="#fff" data-original="#000000" class=""></path><path xmlns="http://www.w3.org/2000/svg" d="m12 18.13c3.38 0 6.13-2.75 6.13-6.13s-2.75-6.13-6.13-6.13-6.13 2.75-6.13 6.13 2.75 6.13 6.13 6.13zm0-10.76c2.553 0 4.63 2.077 4.63 4.63s-2.077 4.63-4.63 4.63-4.63-2.077-4.63-4.63 2.077-4.63 4.63-4.63z" fill="#fff" data-original="#000000" class=""></path><path xmlns="http://www.w3.org/2000/svg" d="m18.358 7.362c.986 0 1.729-.74 1.729-1.721 0-1.023-.782-1.721-1.728-1.721-.986 0-1.729.74-1.729 1.721 0 1.021.778 1.721 1.728 1.721zm.177-1.886c.316.279-.405.618-.405.166 0-.27.367-.2.405-.166z" fill="#fff" data-original="#000000" class=""></path></g></svg>