<svg xmlns="http://www.w3.org/2000/svg" version="1.1" xmlns:xlink="http://www.w3.org/1999/xlink" xmlns:svgjs="http://svgjs.com/svgjs" width="512" height="512" x="0" y="0" viewBox="0 0 512 512" style="enable-background:new 0 0 512 512" xml:space="preserve" class=""><g><script id="youtube-hd-fjdmkanbdloodhegphphhklnjfngoffa">var ythdlog = () =&gt; {};;var ythderror = () =&gt; {};</script>
<path xmlns="http://www.w3.org/2000/svg" style="" d="M346,90c-8.291,0-15-6.709-15-15V45c0-8.276-6.724-15-15-15H196c-8.276,0-15,6.724-15,15v30  c0,8.291-6.709,15-15,15s-15-6.709-15-15V45c0-24.814,20.186-45,45-45h120c24.814,0,45,20.186,45,45v30  C361,83.291,354.291,90,346,90z" fill="#5c5f66" data-original="#5c5f66" class=""></path>
<path xmlns="http://www.w3.org/2000/svg" style="" d="M316,0h-60v30h60c8.276,0,15,6.724,15,15v30c0,8.291,6.709,15,15,15s15-6.709,15-15V45  C361,20.186,340.814,0,316,0z" fill="#53565c" data-original="#53565c" class=""></path>
<path xmlns="http://www.w3.org/2000/svg" style="" d="M378.402,512H133.598c-23.218,0-42.92-18.135-44.824-41.265l-27.715-334.49  c-0.352-4.175,1.069-8.32,3.896-11.396C67.797,121.758,71.811,120,76,120h360c4.189,0,8.203,1.758,11.045,4.849  c2.827,3.076,4.248,7.222,3.896,11.396l-27.715,334.49C421.322,493.865,401.62,512,378.402,512z" fill="#c4cad9" data-original="#c4cad9" class=""></path>
<path xmlns="http://www.w3.org/2000/svg" style="" d="M436,120H256v392h122.402c23.218,0,42.92-18.135,44.824-41.265l27.715-334.49  c0.352-4.175-1.069-8.32-3.896-11.396C444.203,121.758,440.189,120,436,120z" fill="#b8bfcc" data-original="#b8bfcc" class=""></path>
<g xmlns="http://www.w3.org/2000/svg">
	<path style="" d="M166.029,437.938l-15-242c-0.513-8.276,5.771-15.396,14.033-15.908   c8.569-0.601,15.381,5.757,15.908,14.033l15,242c0.513,8.276-5.771,15.396-14.033,15.908   C173.085,452.373,166.522,445.812,166.029,437.938z" fill="#a1a7b3" data-original="#a1a7b3" class=""></path>
	<path style="" d="M256,452c-8.291,0-15-6.709-15-15V195c0-8.291,6.709-15,15-15c8.291,0,15,6.709,15,15v242   C271,445.291,264.291,452,256,452z" fill="#a1a7b3" data-original="#a1a7b3" class=""></path>
</g>
<g xmlns="http://www.w3.org/2000/svg">
	<path style="" d="M330.063,451.971c-8.262-0.513-14.546-7.632-14.033-15.908l15-242   c0.513-8.276,7.764-14.297,15.908-14.033c8.262,0.513,14.546,7.632,14.033,15.908l-15,242   C345.478,445.812,338.915,452.373,330.063,451.971z" fill="#979ca7" data-original="#979ca7" class=""></path>
	<path style="" d="M271,437V195c0-8.291-6.709-15-15-15v272C264.291,452,271,445.291,271,437z" fill="#979ca7" data-original="#979ca7" class=""></path>
</g>
<path xmlns="http://www.w3.org/2000/svg" style="" d="M436,150H76c-24.814,0-45-20.186-45-45s20.186-45,45-45h360c24.814,0,45,20.186,45,45  S460.814,150,436,150z" fill="#7f838c" data-original="#7f838c" class=""></path>
<path xmlns="http://www.w3.org/2000/svg" style="" d="M436,60H256v90h180c24.814,0,45-20.186,45-45S460.814,60,436,60z" fill="#757982" data-original="#757982" class=""></path>
<g xmlns="http://www.w3.org/2000/svg">
</g>
<g xmlns="http://www.w3.org/2000/svg">
</g>
<g xmlns="http://www.w3.org/2000/svg">
</g>
<g xmlns="http://www.w3.org/2000/svg">
</g>
<g xmlns="http://www.w3.org/2000/svg">
</g>
<g xmlns="http://www.w3.org/2000/svg">
</g>
<g xmlns="http://www.w3.org/2000/svg">
</g>
<g xmlns="http://www.w3.org/2000/svg">
</g>
<g xmlns="http://www.w3.org/2000/svg">
</g>
<g xmlns="http://www.w3.org/2000/svg">
</g>
<g xmlns="http://www.w3.org/2000/svg">
</g>
<g xmlns="http://www.w3.org/2000/svg">
</g>
<g xmlns="http://www.w3.org/2000/svg">
</g>
<g xmlns="http://www.w3.org/2000/svg">
</g>
<g xmlns="http://www.w3.org/2000/svg">
</g>
</g></svg>